<?xml version="1.0" encoding="UTF-8"?>
<svg version="1.1" viewBox="0 0 16 16" xmlns="http://www.w3.org/2000/svg">
  <g transform="translate(0 -292.77)">
    <path transform="translate(0 292.77)" d="m6 1c-0.86275 0-1.603 0.56505-1.8809 1.3398-0.32316-0.21413-0.70939-0.33984-1.1191-0.33984-1.0967 0-2.0254 0.89503-2.0254 2 0 0.081799 0.015521 0.15906 0.025391 0.23828v9.6699c0 0.60436 0.48743 1.0918 1.0918 1.0918h7.8164c0.5552 0 0.99397-0.41778 1.0645-0.95312h3.0332a1.0426 1.0426 0 0 0 1.043-1.043v-6.9141a1.0426 1.0426 0 0 0-1.043-1.043h-3.0059v-0.67578c2.69e-4 -0.013294 0.003906-0.02571 0.003906-0.039063 0-0.013352-0.003637-0.025768-0.003906-0.039062v-0.20117c0-0.19532-0.065105-0.36908-0.1543-0.52734-0.30538-0.72036-1.0222-1.2324-1.8457-1.2324-0.37823 0-0.73128 0.11407-1.0352 0.30078-0.17584-0.9227-0.99603-1.6328-1.9648-1.6328zm5 6.1328h1.9629v4.8301h-1.9629v-4.8301z"/>
    <rect x="2" y="296.77" width="1" height="4" ry=".5" fill="#555753"/>
  </g>
</svg>
