<?xml version="1.0" encoding="UTF-8" standalone="no"?>
<svg
   xmlns:dc="http://purl.org/dc/elements/1.1/"
   xmlns:cc="http://creativecommons.org/ns#"
   xmlns:rdf="http://www.w3.org/1999/02/22-rdf-syntax-ns#"
   xmlns:svg="http://www.w3.org/2000/svg"
   xmlns="http://www.w3.org/2000/svg"
   xmlns:sodipodi="http://sodipodi.sourceforge.net/DTD/sodipodi-0.dtd"
   xmlns:inkscape="http://www.inkscape.org/namespaces/inkscape"
   width="48"
   height="48"
   viewBox="0 0 12.7 12.7"
   version="1.1"
   id="svg8"
   inkscape:version="1.0.2-2 (e86c870879, 2021-01-15)"
   sodipodi:docname="vogel.svg">
  <defs
     id="defs2" />
  <sodipodi:namedview
     id="base"
     pagecolor="#ffffff"
     bordercolor="#666666"
     borderopacity="1.0"
     inkscape:pageopacity="0.0"
     inkscape:pageshadow="2"
     inkscape:zoom="27.557089"
     inkscape:cx="25.110105"
     inkscape:cy="23.361782"
     inkscape:document-units="mm"
     inkscape:current-layer="layer1"
     inkscape:document-rotation="0"
     showgrid="false"
     units="px"
     inkscape:window-width="2560"
     inkscape:window-height="2066"
     inkscape:window-x="2549"
     inkscape:window-y="-11"
     inkscape:window-maximized="1" />
  <metadata
     id="metadata5">
    <rdf:RDF>
      <cc:Work
         rdf:about="">
        <dc:format>image/svg+xml</dc:format>
        <dc:type
           rdf:resource="http://purl.org/dc/dcmitype/StillImage" />
        <dc:title></dc:title>
      </cc:Work>
    </rdf:RDF>
  </metadata>
  <g
     inkscape:label="Layer 1"
     inkscape:groupmode="layer"
     id="layer1">
    <g
       id="g858"
       transform="matrix(0.03098266,0,0,0.04045854,15.080656,13.391725)">
      <path
         style="opacity:1;fill:#000000;stroke:#000000;stroke-width:0.264583px;stroke-linecap:butt;stroke-linejoin:miter;stroke-opacity:1"
         d="m -161.57808,-42.965898 c 31.6454,-5.159951 -5.69007,-52.265428 -51.93619,-49.459608 l -32.71072,-42.523484 c 24.67307,-11.5967 32.26452,-32.15545 47.12734,-68.97852 45.91694,3.24446 83.85366,-14.09166 116.185017,-45.88369 -24.520517,-19.00532 -56.414327,-20.42816 -90.157427,-17.44117 -30.77131,-42.61632 -57.0705,-28.37274 -82.91263,-8.31809 -45.08983,-7.82418 -82.62418,-0.11763 -114.84339,18.51447 -28.37711,-50.1811 -63.76729,-72.86216 -103.30538,-18.7828 -39.5381,54.07936 30.58343,76.32411 64.17956,75.0005 2.27099,14.05996 37.79872,53.20416 62.25119,60.1088 3.22548,20.24859 -22.19168,-23.48302 -53.17337,0.14705 -30.98169,23.63007 6.66613,108.601129 31.71881,95.302674 25.05269,-13.298455 58.36766,-67.071974 74.6643,-63.957104 14.79428,2.82772 43.41918,23.820332 52.38979,41.647459 7.23873,14.385414 68.39399,26.601229 80.5231,24.623513 z"
         id="path849"
         sodipodi:nodetypes="sccccccczcczzsss" />
      <path
         style="fill:#999999;stroke:#000000;stroke-width:0.264583px;stroke-linecap:butt;stroke-linejoin:miter;stroke-opacity:1"
         d="m -198.29267,-265.64242 c -5.29391,0.041 -15.36478,-4.05604 -16.6362,2.68326 -1.27141,6.73931 14.22138,13.54852 20.9294,12.34298 6.70803,-1.20554 12.37357,-7.98748 10.46471,-12.87964 -1.90886,-4.89215 -9.464,-2.18755 -14.75791,-2.1466 z"
         id="path851"
         sodipodi:nodetypes="zzzzz" />
      <path
         style="fill:#999999;stroke:#000000;stroke-width:0.506906px;stroke-linecap:butt;stroke-linejoin:miter;stroke-opacity:1"
         d="m -180.76866,-251.42116 c -10.84517,23.38533 -43.78595,2.11545 -48.45277,8.85475 -4.66678,6.73931 34.22253,28.30643 58.84468,27.10089 24.62219,-1.20554 86.203361,-30.25851 79.196791,-35.15067 -7.00658,-4.89215 -78.743531,-24.1903 -89.588701,-0.80497 z"
         id="path853"
         sodipodi:nodetypes="zzzcz" />
    </g>
  </g>
</svg>
