<?xml version="1.0" encoding="UTF-8" standalone="no"?>
<svg xmlns="http://www.w3.org/2000/svg" viewBox="0 0 100 100">
  <path d="M 38.046868,10 A 35,10 0 0 0 3.0468684,20 V 84.953125 85 h 0.00586 A 35,10 0 0 0 38.046868,94.953125 35,10 0 0 0 73.039056,85 h 0.0078 v -0.04687 -4.804687 c 0.05105,3.36e-4 0.101209,0.0039 0.152344,0.0039 14.056502,0 25.009765,-12.735604 25.009765,-27.759766 0,-15.024162 -10.953263,-27.761719 -25.009765,-27.761719 -0.05114,0 -0.101292,0.0036 -0.152344,0.0039 V 20 a 35,10 0 0 0 -35,-10 z m 35.152344,22.867188 c 9.019505,0 16.773437,8.433946 16.773437,19.52539 0,11.091444 -7.753932,19.525391 -16.773437,19.525391 -0.05132,0 -0.101103,-0.0092 -0.152344,-0.0098 v -39.03125 c 0.05124,-5.45e-4 0.10102,-0.0098 0.152344,-0.0098 z"/>
</svg>
