<?xml version="1.0" encoding="UTF-8"?>
<svg version="1.1" viewBox="0 0 100 100" xmlns="http://www.w3.org/2000/svg">
  <path d="m38.047 10a35 10 0 0 0-35 10v65h0.00586a35 10 0 0 0 34.994 9.9531 35 10 0 0 0 34.992-9.9531h0.0078v-4.8516c0.05105 3.36e-4 0.10121 0.0039 0.15234 0.0039 14.057 0 25.01-12.736 25.01-27.76s-10.953-27.762-25.01-27.762c-0.05114 0-0.10129 0.0036-0.15234 0.0039v-4.6348a35 10 0 0 0-35-10zm35.152 22.867c9.0195 0 16.773 8.4339 16.773 19.525s-7.7539 19.525-16.773 19.525c-0.05132 0-0.1011-0.0092-0.15234-0.0098v-39.031c0.05124-5.45e-4 0.10102-0.0098 0.15234-0.0098z"/>
  <path d="m38.008 15.744a28.381 9.8581 0 0 0-28.381 9.8574 28.381 9.8581 0 0 0 0.0058594 0.052735 35.004 9.8581 0 0 0 28.375 4.1074 35.004 9.8581 0 0 0 28.373-4.1016 28.381 9.8581 0 0 0 0.007813-0.058594 28.381 9.8581 0 0 0-28.381-9.8574z" fill="#555753"/>
</svg>
