<?xml version="1.0" encoding="UTF-8" standalone="no"?>
<svg
   xmlns="http://www.w3.org/2000/svg"
   viewBox="0 0 100 100">
  <circle fill="#888a85" cx="40" cy="60" r="40" />
  <path d="M 90,0 C 84.477153,0 80,4.4771525 80,10 L 64.072266,27.806641 C 57.39878,22.816254 49.114681,19.859375 40.140625,19.859375 c -22.09139,0 -40,17.90861 -40,40 0,22.09139 17.90861,40 40,40 22.09139,0 40,-17.90861 40,-40 0,-9.192576 -3.109395,-17.655062 -8.322266,-24.410156 L 90,20 c 5.522847,0 10,-4.477153 10,-10 C 100,4.4771525 95.522847,0 90,0 Z M 33.732422,40.095703 C 40.832055,40.021122 51.121389,47.905818 52.046875,55 c 1.021227,7.828063 9.80694,1.078794 14.712891,6.763672 C 71.665717,67.44855 72.356346,79.47868 61.455078,80 50.55381,80.52132 48.324698,85.300315 41.734375,87.222656 35.144051,89.144998 26.265433,83.250721 25.140625,78.9375 24.015818,74.624278 13.282766,73.84561 12.761719,66.121094 12.240671,58.396578 17.773516,60.923007 22.21875,56.6875 c 4.445235,-4.235507 2.468357,-14.301724 9.425781,-16.304688 0.652259,-0.187775 1.353446,-0.279394 2.087891,-0.287109 z m 16.533524,27.365311 c -10e-7,7.071968 -5.732964,12.804931 -12.804932,12.804932 -7.071969,0 -12.804932,-5.732963 -12.804933,-12.804932 0,-7.071969 5.732964,-12.804933 12.804933,-12.804933 7.071969,10e-7 12.804932,5.732964 12.804932,12.804933 z" />
</svg>
