<?xml version="1.0" encoding="UTF-8"?>
<svg version="1.1" viewBox="0 0 16 16" xmlns="http://www.w3.org/2000/svg" xmlns:xlink="http://www.w3.org/1999/xlink">
  <path d="m2.1013 13.765c-0.31828 0.034-1.5284-0.04572-1.7946-0.51646-0.27326-0.4818-0.19651-1.5136-0.16115-2.2553-6.05e-4 -1.0647 0.06457-2.1221 0.18429-3.1766 0.0383-0.29786 0.50831-2.7531 0.50831-2.7531s0.17653-0.77373 0.29412-1.1658c0.1176-0.39208 0.16091-0.41242 0.25376-0.52129 0.08324-0.096678 0.30629-0.25072 0.74619-0.3299 0.42041-0.074728 0.73993-0.11832 0.99048-0.12494 0.24986-0.00638 1.1254 0.052696 1.1254 0.052696 0.55107-1.0795 1.0196-1.2813 1.3881-1.4038 0.36864-0.12234 1.0621-0.1195 1.3333 0.00189 0.76781 0.27986 0.90726 0.88748 1.0447 1.094 0.83586-0.18934 1.4241-0.19925 2.4672-0.092957 1.0423 0.10576 2.5069 0.58412 3.316 1.301 0.62268 0.73107 1.2288 1.2564 1.1754 2.6303 0 0-0.3245-0.50778-0.41984-0.37042 0 0-0.06592 0.040922-0.10776 1.105-0.04186 1.0645-0.39176 1.6885-0.83483 2.5942l-0.03916 1.5905 0.0069 0.82065c0.02286 0.47814-7.18e-4 1.2197-0.0511 1.4258-0.05092 0.20607-0.10856 0.28284-0.38033 0.42811-0.27176 0.14526-0.35831 0.13385-0.72717 0.15165-0.36872 0.01764-0.49557-0.01627-0.74744-0.08075-0.25242-0.06434-0.46175-0.19018-0.51921-0.43776-0.03223-0.14189-0.2102-0.05091-0.39582-0.15394-0.18221-0.10159-0.39837-0.25448-0.45837-0.49547-0.0587-0.23799 0.0061-0.86996-0.0031-1.3678 0 0-0.93544 0.04707-1.3791 0.02469-0.43967-0.02174-1.3334-0.18649-1.4079-0.34246-0.07391-0.15513-0.05322 0.56137-0.05825 0.87623-0.0056 0.31451 5.13e-4 1.1885-0.109 1.8347-0.11057 0.64763-1.2373 0.5423-1.7844 0.52841-0.50796-0.0036-0.97671-0.52831-0.92342-0.7645l0.0052-0.33657s-0.25744-0.0776-0.36682-0.14757c-0.10937-0.06997-0.3915-0.27267-0.43137-0.47693-0.03922-0.20292 0.07451-1.8916 0.07573-2.1794 0.0012-0.28201-5.13e-4 -0.37322-0.02612-0.55846-0.02529-0.18653-0.14319-1.2412-0.57016-1.3307-0.27514 0.19843-0.067703 0.083265-0.42263 0.51826-0.35439 0.43534-0.55206 1.0717-0.5892 1.5973-0.03713 0.52558-0.07118 1.0106-0.0322 1.5057 0.0391 0.49576 0.14312 1.2686-0.17472 1.3018z" fill-rule="evenodd"/>
  <path d="m3.1792 4.4311h-0.00115c-0.31896 0-0.57718 0.27148-0.57718 0.60633s0.25937 0.60633 0.57834 0.60633c0.31908 0 0.57777-0.27148 0.57777-0.60633s-0.25867-0.60633-0.57777-0.60633z" fill="#555753"/>
  <path d="m5.1276 2.9889s0.96692-1.5929 1.9878-0.11294c1.2242 2.0221-0.4066 3.7046-0.4066 3.7046" fill="none" stroke="#555753" stroke-linecap="round" stroke-width=".5"/>
  <path d="m5.1728 6.4224c-0.13113 2.3157-1.4005 2.5074-1.4005 2.5074" fill="none" stroke="#555753" stroke-linecap="round" stroke-width=".5"/>
</svg>
