<?xml version="1.0" encoding="UTF-8" standalone="no"?>
<svg
   xmlns="http://www.w3.org/2000/svg"
   width="16"
   height="16"
   viewBox="0 0 100 100"
   version="1.1">
  <path d="m 49.999997,1.849118 c 5.950024,0 11.480923,1.3478 16.592696,4.0434063 5.111763,2.6955817 9.261994,6.0814997 12.450682,10.1577687 3.451687,4.470738 5.440519,9.253775 5.966488,14.349113 0.821825,-0.19725 1.709393,-0.295875 2.662706,-0.295875 3.484556,0 6.410275,1.347806 8.777137,4.043412 C 98.816569,36.842544 100,40.409275 100,44.847125 c 0,1.446419 -0.1315,3.057206 -0.3945,4.832362 -0.427375,2.991438 -1.101275,5.522657 -2.021725,7.593669 -1.117675,2.465488 -2.777756,4.56115 -4.980262,6.286988 -2.202507,1.725831 -4.766607,2.58875 -7.692307,2.58875 h -0.345187 c -0.493063,4.043394 -1.692944,7.905988 -3.599594,11.587775 -1.840894,3.61605 -4.166663,6.845838 -6.9773,9.689344 -2.810669,2.843531 -6.007582,5.169294 -9.590744,6.9773 -4.865216,2.498381 -9.664689,3.747569 -14.398415,3.747569 -4.733727,0 -9.533199,-1.249188 -14.398417,-3.747569 -3.58313,-1.808006 -6.780043,-4.133769 -9.590709,-6.9773 -2.810641,-2.843506 -5.136408,-6.073294 -6.977301,-9.689344 -1.906652,-3.681787 -3.106517,-7.544381 -3.599596,-11.587775 h -0.345175 c -2.9257,0 -5.4898005,-0.862919 -7.6923055,-2.58875 C 5.1939584,61.834306 3.5338721,59.738644 2.4161971,57.273156 1.4957508,55.202144 0.82184327,52.670925 0.39447514,49.679487 0.13148763,47.904331 1.25e-7,46.293544 1.25e-7,44.847125 c 0,-4.43785 1.183431275,-8.004581 3.550294475,-10.700182 2.3668631,-2.695606 5.292576,-4.043412 8.7771354,-4.043412 0.953313,0 1.840881,0.09862 2.662703,0.295875 0.525968,-5.095338 2.5148,-9.878375 5.966494,-14.349113 C 24.145311,11.974024 28.29554,8.588106 33.407308,5.8925243 38.519077,3.196918 44.049976,1.849118 49.999997,1.849118 Z"/>
</svg>
