<?xml version="1.0" encoding="UTF-8"?>
<svg version="1.1" viewBox="0 0 16 16" xmlns="http://www.w3.org/2000/svg" xmlns:osb="http://www.openswatchbook.org/uri/2009/osb">
  <g transform="translate(0 -1036.4)">
    <path d="m5.5308 1051.8c1.213-1.8931 1.6868-5.8933 1.6774-6.0435-0.82708 1.2795-1.3981 1.8003-2.1161 2.5024-0.52441 0.5127-0.92486 0.7397-1.4421 0.8174-1.3964 0.2099-3.0527-1.0117-3.0527-2.2514 0-0.5125 0.29782-1.0737 0.79894-1.5055l0.21742-0.1874-0.12241-0.048c-0.64717-0.2547-1.1327-0.7074-1.3256-1.2357-0.10602-0.2904-0.10653-0.718-0.00123-1.0438 0.15133-0.4682 0.37823-0.8352 0.74206-1.2003 0.53938-0.5412 1.1191-0.8039 1.7772-0.8052 0.3812-7e-4 0.63417 0.063 1.0851 0.2736 0.71426 0.3335 1.5805 0.8943 2.6131 1.6917l0.17249 0.1279-0.10674-0.1087c-1.0326-1.052-1.9513-1.8756-2.4318-2.5792-0.4371-0.64-0.50526-1.3386-0.20016-2.0514 0.33705-0.7874 1.1552-1.4871 1.9501-1.6676 0.40074-0.091 0.78337-0.037 1.188 0.1666 0.282 0.1421 0.66951 0.5 0.87198 0.8052l0.14048 0.2117 0.15891-0.2276c0.19932-0.2855 0.51502-0.5857 0.77149-0.7336 0.80139-0.4624 1.74-0.2657 2.5641 0.5373 0.34246 0.3337 0.56513 0.6698 0.7173 1.0828 0.09615 0.261 0.10285 0.3074 0.10209 0.7069-7.65e-4 0.3997-0.0074 0.4442-0.10203 0.6843-0.05566 0.1412-0.15672 0.3407-0.22457 0.4433-0.44479 0.6728-1.2186 1.5558-2.2918 2.4677-0.21244 0.1805-0.18259 0.171-0.18259 0.1769 0 0.01-0.17596 0.116 0.03648-0.053 1.3074-1.0368 2.5864-1.7486 3.2696-1.917 0.96356-0.2374 2.0206 0.236 2.6718 1.1966 0.27193 0.4012 0.4586 0.9324 0.45739 1.3018-6.95e-4 0.2119-0.08171 0.5147-0.19616 0.7331-0.1921 0.3666-0.66815 0.7703-1.1417 0.9682l-0.20155 0.084 0.28797 0.274c0.47942 0.4562 0.66163 0.8174 0.68601 1.3597 0.01248 0.2775 0.0035 0.3589-0.06032 0.5503-0.23604 0.7072-1.0344 1.4024-1.9214 1.673-0.32155 0.098-0.90662 0.1229-1.1998 0.051-0.26664-0.065-0.58594-0.2075-0.78475-0.3489-0.18906-0.1344-0.81221-0.7407-1.1091-1.0791-0.48554-0.5533-0.98856-1.183-1.4216-1.8778-0.32688 3.5125-0.99369 5.2351-1.5437 6.5474-0.56893-0.1973-1.1994-0.3337-1.7774-0.4701zm4.1666-9.1808-0.02226 0.011 0.24555-0.204c0.13607-0.113-0.44514 0.3557-0.44514 0.3619 0 0.039 0.43513-0.3397 0.22186-0.1684z"/>
  </g>
</svg>
