<?xml version="1.0" encoding="UTF-8"?>
<svg version="1.1" viewBox="0 0 16 16" xmlns="http://www.w3.org/2000/svg">
  <g>
    <path d="m14.714 6.0407c-0.50747-1.1538-1.523-1.8561-2.4978-1.8328-0.18047-0.13118-0.41595-0.17968-0.61492-0.21067-0.5016-0.49403-1.1749-0.7981-1.9155-0.7981-0.36134 0-0.71478 0.072062-1.0446 0.2112-0.50125-0.86512-1.4051-1.4149-2.3963-1.4149s-1.8951 0.54981-2.3963 1.4149c-0.32983-0.13914-0.68328-0.2112-1.0446-0.2112-1.5461 0-2.8038 1.3199-2.8038 2.9423 0 0.64861 0.19897 1.2658 0.56663 1.7742-0.10988 0.2805-0.16691 0.5818-0.16691 0.88857 0 1.1333 0.77157 2.0808 1.7924 2.295v1.6211c0 0.70311 0.54504 1.2751 1.215 1.2751h0.27189c0.66998 0 1.215-0.57199 1.215-1.2751v-1.237c0.067554 0.0051 0.13546 0.0079 0.20373 0.0079 0.62741 0 1.232-0.22139 1.7205-0.6199 0.22845 0.18642 0.48254 0.33346 0.75225 0.43784v1.4112c0 0.70311 0.54504 1.2751 1.215 1.2751h0.27189c0.66998 0 1.215-0.57199 1.215-1.2751v-1.8615c0.49725-0.41226 0.85899-0.99704 1.0018-1.6678 0.193 0.18313 0.40497 0.33781 0.63201 0.45694 0.34237 0.17962 0.69516 0.26984 1.0388 0.26984 0.28878 0 0.57108-0.063731 0.83518-0.19162 1.1613-0.56249 1.5801-2.2158 0.93378-3.6855z"/>
    <path d="m13.438 8.949c-0.3489 0.16906-0.76348 0.14524-1.1673-0.066596-0.01193-0.00626-0.02336-0.013744-0.03519-0.020324 0.16166-0.12014 0.30359-0.27047 0.41878-0.44713 0.2551-0.39125 0.34981-0.86337 0.26653-1.3292l-0.35552-1.9905c0.55363 0.12741 1.0998 0.60425 1.4077 1.3042 0.45792 1.0411 0.21793 2.1849-0.53492 2.5496zm-1.6252-1.1383c-0.10133 0.15532-0.25419 0.26002-0.43066 0.29472-0.08561 0.016768-0.18638 0.016132-0.38439-0.00361l0.6444-2.3666 0.27639 1.5477c0.03312 0.18498-0.0045 0.37246-0.10573 0.52784z" fill="#555753"/>
    <path d="m13.179 6.452h-5.06e-4c-0.14072 0-0.25464 0.11977-0.25464 0.2675s0.11443 0.2675 0.25515 0.2675c0.14077 0 0.2549-0.11977 0.2549-0.2675s-0.11412-0.2675-0.2549-0.2675z"/>
  </g>
</svg>
